<mxfile host="app.diagrams.net" agent="Mozilla/5.0 (Windows NT 10.0; Win64; x64) AppleWebKit/537.36 (KHTML, like Gecko) Chrome/134.0.0.0 Safari/537.36" version="26.0.16">
  <diagram name="Page-1" id="ydH1h3y2La2eyV7LBGCs">
    <mxGraphModel dx="2607" dy="1404" grid="1" gridSize="10" guides="1" tooltips="1" connect="1" arrows="1" fold="1" page="1" pageScale="1" pageWidth="850" pageHeight="1100" math="0" shadow="0">
      <root>
        <mxCell id="0" />
        <mxCell id="1" parent="0" />
        <mxCell id="2ZChWpdKcIRpVIyVNBeR-1" value="" style="whiteSpace=wrap;html=1;aspect=fixed;fillColor=none;" vertex="1" parent="1">
          <mxGeometry x="40" y="80" width="1580" height="1580" as="geometry" />
        </mxCell>
        <mxCell id="2ZChWpdKcIRpVIyVNBeR-2" value="" style="rounded=1;whiteSpace=wrap;html=1;" vertex="1" parent="1">
          <mxGeometry x="390" y="260" width="120" height="60" as="geometry" />
        </mxCell>
        <mxCell id="2ZChWpdKcIRpVIyVNBeR-3" value="" style="rounded=1;whiteSpace=wrap;html=1;" vertex="1" parent="1">
          <mxGeometry x="390" y="470" width="120" height="60" as="geometry" />
        </mxCell>
        <mxCell id="2ZChWpdKcIRpVIyVNBeR-4" value="" style="rounded=1;whiteSpace=wrap;html=1;" vertex="1" parent="1">
          <mxGeometry x="720" y="220" width="120" height="60" as="geometry" />
        </mxCell>
        <mxCell id="2ZChWpdKcIRpVIyVNBeR-5" value="" style="rounded=1;whiteSpace=wrap;html=1;" vertex="1" parent="1">
          <mxGeometry x="720" y="300" width="120" height="60" as="geometry" />
        </mxCell>
        <mxCell id="2ZChWpdKcIRpVIyVNBeR-6" value="" style="rounded=1;whiteSpace=wrap;html=1;" vertex="1" parent="1">
          <mxGeometry x="720" y="390" width="120" height="60" as="geometry" />
        </mxCell>
        <mxCell id="2ZChWpdKcIRpVIyVNBeR-7" value="" style="rounded=1;whiteSpace=wrap;html=1;" vertex="1" parent="1">
          <mxGeometry x="720" y="470" width="120" height="60" as="geometry" />
        </mxCell>
        <mxCell id="2ZChWpdKcIRpVIyVNBeR-8" value="" style="rounded=1;whiteSpace=wrap;html=1;" vertex="1" parent="1">
          <mxGeometry x="720" y="560" width="120" height="60" as="geometry" />
        </mxCell>
        <mxCell id="2ZChWpdKcIRpVIyVNBeR-9" value="" style="rounded=1;whiteSpace=wrap;html=1;" vertex="1" parent="1">
          <mxGeometry x="405" y="370" width="90" height="50" as="geometry" />
        </mxCell>
        <mxCell id="2ZChWpdKcIRpVIyVNBeR-10" value="Actor" style="shape=umlActor;verticalLabelPosition=bottom;verticalAlign=top;html=1;outlineConnect=0;" vertex="1" parent="1">
          <mxGeometry x="150" y="370" width="30" height="60" as="geometry" />
        </mxCell>
      </root>
    </mxGraphModel>
  </diagram>
</mxfile>
